<svg width="24" height="24" viewBox="0 0 24 24" fill="none" xmlns="http://www.w3.org/2000/svg">
<path fill-rule="evenodd" clip-rule="evenodd" d="M12 23.4844C5.65734 23.4844 0.515625 18.3427 0.515625 12C0.515625 5.65734 5.65734 0.515625 12 0.515625C18.3427 0.515625 23.4844 5.65734 23.4844 12C23.4844 18.3427 18.3427 23.4844 12 23.4844ZM12 22.6641C17.8896 22.6641 22.6641 17.8896 22.6641 12C22.6641 6.11039 17.8896 1.33594 12 1.33594C6.11039 1.33594 1.33594 6.11039 1.33594 12C1.33594 17.8896 6.11039 22.6641 12 22.6641Z" fill="white"/>
<path fill-rule="evenodd" clip-rule="evenodd" d="M3.11523 8.07383C3.60672 6.89844 4.31195 6.21523 4.50238 6.02199C4.69281 5.82887 4.96316 5.92309 5.14422 6.02199C5.32527 6.12101 9.86371 10.6668 10.0663 10.8951C10.2688 11.1234 10.4835 11.4639 9.90215 11.4639C9.32066 11.4639 3.60824 11.414 3.11523 11.38C2.62211 11.3459 2.47656 11.0584 2.47656 10.8127C2.47656 10.5671 2.62363 9.24933 3.11523 8.07383ZM8.6057 3.01684C9.78449 2.5332 10.6248 2.56496 10.8961 2.56309C11.1674 2.56121 11.2919 2.81891 11.35 3.01684C11.408 3.21488 11.4502 9.67719 11.432 9.98176C11.4137 10.2864 11.4188 10.6243 11.0077 10.2131C10.5965 9.80199 6.59242 5.72738 6.26793 5.35473C5.94332 4.98195 6.04375 4.67562 6.21754 4.50195C6.39121 4.32828 7.4268 3.50059 8.6057 3.01684ZM15.8118 3.11328C16.9872 3.60477 17.6704 4.31 17.8636 4.50043C18.0568 4.69086 17.9625 4.96121 17.8636 5.14226C17.7646 5.32332 13.2188 9.86176 12.9905 10.0644C12.7622 10.2669 12.4217 10.4816 12.4217 9.90019C12.4217 9.31871 12.4716 3.60629 12.5056 3.11328C12.5397 2.62016 12.8273 2.47461 13.0729 2.47461C13.3185 2.47461 14.6363 2.62168 15.8118 3.11328ZM20.8688 8.60375C21.3524 9.78254 21.3207 10.6229 21.3225 10.8942C21.3244 11.1655 21.0667 11.2899 20.8688 11.348C20.6707 11.4061 14.2084 11.4482 13.9039 11.4301C13.5992 11.4118 13.2613 11.4168 13.6725 11.0057C14.0836 10.5945 18.1582 6.59047 18.5309 6.26598C18.9037 5.94137 19.21 6.0418 19.3837 6.21559C19.5573 6.38926 20.385 7.42484 20.8688 8.60375ZM20.7723 15.927C20.2809 17.1024 19.5756 17.7856 19.3852 17.9789C19.1948 18.172 18.9244 18.0778 18.7434 17.9789C18.5623 17.8798 14.0239 13.334 13.8212 13.1057C13.6187 12.8775 13.4041 12.5369 13.9854 12.5369C14.5669 12.5369 20.2793 12.5868 20.7723 12.6208C21.2655 12.6549 21.411 12.9425 21.411 13.1881C21.411 13.4337 21.2639 14.7515 20.7723 15.927ZM15.2819 20.984C14.1031 21.4677 13.2627 21.4359 12.9914 21.4378C12.7202 21.4396 12.5957 21.1819 12.5376 20.984C12.4796 20.786 12.4374 14.3237 12.4555 14.0191C12.4738 13.7144 12.4688 13.3766 12.8799 13.7878C13.2911 14.1989 17.2952 18.2735 17.6196 18.6461C17.9443 19.0189 17.8438 19.3252 17.67 19.4989C17.4964 19.6726 16.4607 20.5003 15.2818 20.984H15.2819ZM8.07578 20.8876C6.90039 20.3961 6.21719 19.6909 6.02394 19.5004C5.83082 19.31 5.92504 19.0396 6.02394 18.8586C6.12297 18.6775 10.6688 14.1391 10.8971 13.9365C11.1253 13.734 11.4659 13.5193 11.4659 14.1007C11.4659 14.6821 11.416 20.3946 11.382 20.8876C11.3479 21.3807 11.0603 21.5262 10.8147 21.5262C10.5691 21.5262 9.25129 21.3792 8.07578 20.8876ZM3.01879 15.3971C2.53516 14.2183 2.56691 13.378 2.56504 13.1067C2.56316 12.8354 2.82086 12.7109 3.01879 12.6528C3.21684 12.5948 9.67914 12.5526 9.98371 12.5708C10.2884 12.5891 10.6262 12.584 10.215 12.9951C9.80394 13.4063 5.72934 17.4104 5.35668 17.7349C4.98391 18.0595 4.67758 17.9591 4.50391 17.7853C4.33023 17.6116 3.50254 16.5759 3.01879 15.397V15.3971Z" fill="white"/>
</svg>
