<svg width="18" height="20" viewBox="0 0 18 20" fill="none" xmlns="http://www.w3.org/2000/svg">
<path d="M11.0001 11.9997H7.00012V18.9997H11.0001V11.9997Z" fill="#D6D1D5"/>
<path d="M17.4201 8.1797L9.71012 0.299705C9.61715 0.205976 9.50655 0.131582 9.38469 0.0808132C9.26283 0.0300445 9.13213 0.00390625 9.00012 0.00390625C8.8681 0.00390625 8.7374 0.0300445 8.61554 0.0808132C8.49368 0.131582 8.38308 0.205976 8.29012 0.299705L0.580115 8.1897C0.393552 8.37777 0.24621 8.60103 0.146643 8.84651C0.0470768 9.092 -0.00272978 9.35481 0.000115364 9.6197V17.9997C-0.00065946 18.5116 0.194889 19.0043 0.54649 19.3764C0.898091 19.7485 1.37898 19.9715 1.89012 19.9997H5.00012V10.9997C5.00012 10.7345 5.10547 10.4801 5.29301 10.2926C5.48055 10.1051 5.7349 9.9997 6.00012 9.9997H12.0001C12.2653 9.9997 12.5197 10.1051 12.7072 10.2926C12.8948 10.4801 13.0001 10.7345 13.0001 10.9997V19.9997H16.1101C16.6213 19.9715 17.1021 19.7485 17.4537 19.3764C17.8053 19.0043 18.0009 18.5116 18.0001 17.9997V9.6197C18.0009 9.08264 17.7929 8.56629 17.4201 8.1797Z" fill="#D6D1D5"/>
</svg>
