<svg width="24" height="24" viewBox="0 0 24 24" fill="none" xmlns="http://www.w3.org/2000/svg">
<path d="M11.8066 14.77L8.09155 10.312C7.99423 10.1952 7.93223 10.053 7.9128 9.90218C7.89338 9.75137 7.91734 9.59814 7.98188 9.46045C8.04642 9.32277 8.14887 9.20633 8.27721 9.12478C8.40556 9.04323 8.55449 8.99994 8.70655 9H15.2906C15.4425 9.00013 15.5913 9.04355 15.7195 9.12518C15.8477 9.2068 15.95 9.32326 16.0144 9.46091C16.0788 9.59855 16.1027 9.75171 16.0833 9.90243C16.0638 10.0532 16.0018 10.1952 15.9046 10.312L12.1906 14.77C12.1671 14.7981 12.1377 14.8208 12.1046 14.8363C12.0714 14.8518 12.0352 14.8599 11.9986 14.8599C11.9619 14.8599 11.9257 14.8518 11.8926 14.8363C11.8594 14.8208 11.83 14.7981 11.8066 14.77Z" fill="#303030"/>
</svg>
