<svg width="24" height="24" viewBox="0 0 24 24" fill="none" xmlns="http://www.w3.org/2000/svg">
<path d="M8.8 10.95L10.95 8.775L9.55 7.35L8.45 8.45L7.05 7.05L8.125 5.95L7 4.825L4.825 7L8.8 10.95ZM17 19.175L19.175 17L18.05 15.875L16.95 16.95L15.55 15.55L16.625 14.45L15.2 13.05L13.05 15.2L17 19.175ZM7.25 21H3V16.75L7.375 12.375L2 7L7 2L12.4 7.4L17.625 2.15L21.825 6.4L16.625 11.625L22 17L17 22L11.625 16.625L7.25 21ZM5 19H6.4L16.2 9.225L14.775 7.8L5 17.6V19ZM15.5 8.525L14.775 7.8L16.2 9.225L15.5 8.525Z" fill="white"/>
</svg>
