<svg width="20" height="20" viewBox="0 0 20 20" fill="none" xmlns="http://www.w3.org/2000/svg">
<path fill-rule="evenodd" clip-rule="evenodd" d="M3.125 6.875V3.125H6.875V6.875H3.125ZM1.25 2.5C1.25 2.16848 1.3817 1.85054 1.61612 1.61612C1.85054 1.3817 2.16848 1.25 2.5 1.25H7.5C7.83152 1.25 8.14946 1.3817 8.38388 1.61612C8.6183 1.85054 8.75 2.16848 8.75 2.5V7.5C8.75 7.83152 8.6183 8.14946 8.38388 8.38388C8.14946 8.6183 7.83152 8.75 7.5 8.75H2.5C2.16848 8.75 1.85054 8.6183 1.61612 8.38388C1.3817 8.14946 1.25 7.83152 1.25 7.5V2.5ZM11.25 2.8125C11.25 2.56386 11.3488 2.3254 11.5246 2.14959C11.7004 1.97377 11.9389 1.875 12.1875 1.875H17.8125C18.0611 1.875 18.2996 1.97377 18.4754 2.14959C18.6512 2.3254 18.75 2.56386 18.75 2.8125C18.75 3.06114 18.6512 3.2996 18.4754 3.47541C18.2996 3.65123 18.0611 3.75 17.8125 3.75H12.1875C11.9389 3.75 11.7004 3.65123 11.5246 3.47541C11.3488 3.2996 11.25 3.06114 11.25 2.8125ZM12.1875 6.25C11.9389 6.25 11.7004 6.34877 11.5246 6.52459C11.3488 6.7004 11.25 6.93886 11.25 7.1875C11.25 7.43614 11.3488 7.6746 11.5246 7.85041C11.7004 8.02623 11.9389 8.125 12.1875 8.125H17.8125C18.0611 8.125 18.2996 8.02623 18.4754 7.85041C18.6512 7.6746 18.75 7.43614 18.75 7.1875C18.75 6.93886 18.6512 6.7004 18.4754 6.52459C18.2996 6.34877 18.0611 6.25 17.8125 6.25H12.1875ZM3.125 13.125V16.875H6.875V13.125H3.125ZM2.5 11.25C2.16848 11.25 1.85054 11.3817 1.61612 11.6161C1.3817 11.8505 1.25 12.1685 1.25 12.5V17.5C1.25 17.8315 1.3817 18.1495 1.61612 18.3839C1.85054 18.6183 2.16848 18.75 2.5 18.75H7.5C7.83152 18.75 8.14946 18.6183 8.38388 18.3839C8.6183 18.1495 8.75 17.8315 8.75 17.5V12.5C8.75 12.1685 8.6183 11.8505 8.38388 11.6161C8.14946 11.3817 7.83152 11.25 7.5 11.25H2.5ZM12.1875 11.875C11.9389 11.875 11.7004 11.9738 11.5246 12.1496C11.3488 12.3254 11.25 12.5639 11.25 12.8125C11.25 13.0611 11.3488 13.2996 11.5246 13.4754C11.7004 13.6512 11.9389 13.75 12.1875 13.75H17.8125C18.0611 13.75 18.2996 13.6512 18.4754 13.4754C18.6512 13.2996 18.75 13.0611 18.75 12.8125C18.75 12.5639 18.6512 12.3254 18.4754 12.1496C18.2996 11.9738 18.0611 11.875 17.8125 11.875H12.1875ZM12.1875 16.25C11.9389 16.25 11.7004 16.3488 11.5246 16.5246C11.3488 16.7004 11.25 16.9389 11.25 17.1875C11.25 17.4361 11.3488 17.6746 11.5246 17.8504C11.7004 18.0262 11.9389 18.125 12.1875 18.125H17.8125C18.0611 18.125 18.2996 18.0262 18.4754 17.8504C18.6512 17.6746 18.75 17.4361 18.75 17.1875C18.75 16.9389 18.6512 16.7004 18.4754 16.5246C18.2996 16.3488 18.0611 16.25 17.8125 16.25H12.1875Z" fill="#EEFFEE" fill-opacity="0.996078"/>
</svg>
