<svg width="14" height="16" viewBox="0 0 14 16" fill="none" xmlns="http://www.w3.org/2000/svg">
<path d="M8.67019 8V14.5667C8.70353 14.8167 8.62019 15.0833 8.42853 15.2583C8.35143 15.3356 8.25986 15.3969 8.15905 15.4387C8.05824 15.4805 7.95017 15.502 7.84103 15.502C7.73189 15.502 7.62382 15.4805 7.52301 15.4387C7.4222 15.3969 7.33062 15.3356 7.25353 15.2583L5.57853 13.5833C5.48769 13.4944 5.41862 13.3858 5.3767 13.2658C5.33478 13.1458 5.32115 13.0178 5.33686 12.8917V8H5.31186L0.511861 1.85C0.376534 1.67628 0.315472 1.45605 0.342017 1.23744C0.368562 1.01883 0.480556 0.819622 0.653527 0.683333C0.811861 0.566667 0.986861 0.5 1.17019 0.5H12.8369C13.0202 0.5 13.1952 0.566667 13.3535 0.683333C13.5265 0.819622 13.6385 1.01883 13.665 1.23744C13.6916 1.45605 13.6305 1.67628 13.4952 1.85L8.69519 8H8.67019Z" fill="#303030"/>
</svg>
